Coordinates
version=1
nRows=10
nColumns=63
inDegrees=yes

Units are S.I. units (second, meters, Newtons, ...)
If the header above contains a line with 'inDegrees', this indicates whether rotational values are in degrees (yes) or radians (no).

endheader
time	pelvis_tilt	pelvis_list	pelvis_rotation	pelvis_tx	pelvis_ty	pelvis_tz	hip_flexion_r	hip_adduction_r	hip_rotation_r	knee_angle_r	knee_angle_r_beta	ankle_angle_r	subtalar_angle_r	mtp_angle_r	hip_flexion_l	hip_adduction_l	hip_rotation_l	knee_angle_l	knee_angle_l_beta	ankle_angle_l	subtalar_angle_l	mtp_angle_l	L5_S1_Flex_Ext	L5_S1_Lat_Bending	L5_S1_axial_rotation	L4_L5_Flex_Ext	L4_L5_Lat_Bending	L4_L5_axial_rotation	L3_L4_Flex_Ext	L3_L4_Lat_Bending	L3_L4_axial_rotation	L2_L3_Flex_Ext	L2_L3_Lat_Bending	L2_L3_axial_rotation	L1_L2_Flex_Ext	L1_L2_Lat_Bending	L1_L2_axial_rotation	L1_T12_Flex_Ext	L1_T12_Lat_Bending	L1_T12_axial_rotation	Abs_r3	Abs_r2	Abs_r1	Abs_t1	Abs_t2	neck_flexion	neck_bending	neck_rotation	arm_flex_r	arm_add_r	arm_rot_r	elbow_flex_r	pro_sup_r	wrist_flex_r	wrist_dev_r	arm_flex_l	arm_add_l	arm_rot_l	elbow_flex_l	pro_sup_l	wrist_flex_l	wrist_dev_l
      0.68333333	     -7.25009813	    -12.59524913	     80.70285264	      0.22769633	      0.92443461	      0.55142130	     20.59878393	     -5.75201221	     -5.43281841	     17.53267116	      0.30600284	     31.81133003	     12.56081855	      0.00000000	     16.00962471	      4.16916307	      3.53260540	      8.32150703	      0.14523770	     20.48734609	    -14.98346144	      0.00000000	     -0.05577632	     -1.77533194	      0.65553488	     -0.10358220	     -2.36119148	      0.69650581	     -0.09163491	     -4.31654208	      0.69650581	     -0.06374675	     -4.31654208	      0.57359302	     -0.05179389	     -3.62025690	      0.53262209	     -0.03187059	     -2.74998918	      0.49165116	     -0.39840467	    -20.08290999	      3.64588833	      0.00000000	      0.00000000	     15.70118274	     13.72553316	     -1.73899967	      6.84475770	     -5.26154775	     15.18865862	    105.48963349	     87.53519419	    -10.20595528	     25.58772218	     24.07489258	     -6.90478205	    144.06511340	      7.19509552	      3.28033170	     -2.88286190	    -12.56067911
      0.70000000	     -7.87949198	    -13.24919248	     80.20465832	      0.22875828	      0.92433475	      0.55201072	     21.23192100	     -6.04223801	     -4.91848350	     17.00659879	      0.29682114	     31.57579796	     12.67164993	      0.00000000	     16.65725686	      4.53425893	      3.49653674	      7.76408368	      0.13550882	     20.11788724	    -15.25814526	      0.00000000	     -0.06278232	     -1.89919234	      0.43770622	     -0.11659305	     -2.52592581	      0.46506286	     -0.10314508	     -4.61769626	      0.46506286	     -0.07175392	     -4.61769626	      0.38299294	     -0.05829967	     -3.87283302	      0.35563630	     -0.03587382	     -2.94184894	      0.32827966	     -0.44844786	    -21.48404359	      2.43439067	      0.00000000	      0.00000000	     15.99353054	     14.19211053	     -0.58700658	      8.85509229	     -4.35343370	     15.58021716	    108.75704568	     86.91996433	    -11.43205750	     28.01088579	     23.06517097	     -7.76046139	    155.02575873	      5.67792537	      3.66262993	     -5.43334015	     -9.71272010
      0.71666667	     -8.42332456	    -13.79403138	     79.78856941	      0.22992577	      0.92438270	      0.55273960	     21.68860375	     -6.26579873	     -4.48542872	     16.39123472	      0.28608101	     31.32683319	     12.78613851	      0.00000000	     17.24709812	      4.81143335	      3.04309686	      7.40476847	      0.12923759	     19.74723649	    -15.19974407	      0.00000000	     -0.06968677	     -2.01620340	      0.23306074	     -0.12941531	     -2.68155053	      0.24762703	     -0.11448840	     -4.90219696	      0.24762703	     -0.07964501	     -4.90219696	      0.20392814	     -0.06471114	     -4.11144198	      0.18936185	     -0.03981902	     -3.12309907	      0.17479555	     -0.49776565	    -22.80769616	      1.29621390	      0.00000000	      0.00000000	     16.08833430	     14.66133761	      0.50317924	     10.94502184	     -3.40240440	     15.94557939	    111.22923456	     86.63994033	    -12.22748778	     30.05964240	     22.18176820	     -8.74818232	    164.30887328	      5.05623108	      4.60948804	     -7.58369431	     -6.47161038
      0.73333333	     -8.90125124	    -14.21696852	     79.51411502	      0.23096377	      0.92448686	      0.55345304	     21.99862458	     -6.48972243	     -4.16962765	     15.81856814	      0.27608610	     31.18681511	     12.87140582	      0.00000000	     17.74236886	      5.06955669	      2.41294931	      7.21520732	      0.12592912	     19.28602051	    -15.00430229	      0.00000000	     -0.07638252	     -2.12867539	      0.01762960	     -0.14184998	     -2.83113827	      0.01873145	     -0.12548885	     -5.17566135	      0.01873145	     -0.08729759	     -5.17566135	      0.01542590	     -0.07092881	     -4.34079486	      0.01432405	     -0.04364497	     -3.29731818	      0.01322220	     -0.54559273	    -24.08000178	      0.09805057	      0.00000000	      0.00000000	     16.10087355	     15.39283907	      1.58431652	     13.12623258	     -2.39985673	     16.32743461	    112.81794152	     86.59588344	    -12.56370844	     31.52355043	     21.23864508	     -9.95963395	    166.45162606	      5.44827482	      6.37787562	     -9.24125205	     -3.81809007
      0.75000000	     -9.24869079	    -14.71519359	     79.36064804	      0.23227696	      0.92446341	      0.55427427	     22.32777971	     -6.57378889	     -3.96740121	     15.20496077	      0.26537663	     30.97639655	     12.95682898	      0.00000000	     18.39054993	      5.18478382	      1.76158140	      7.28124262	      0.12708166	     18.67263618	    -14.95687535	      0.00000000	     -0.07214307	     -2.23310007	     -0.13423319	     -0.13397689	     -2.97002309	     -0.14262276	     -0.11852385	     -5.42955950	     -0.14262276	     -0.08245231	     -5.42955950	     -0.11745404	     -0.06699205	     -4.55373766	     -0.10906446	     -0.04122255	     -3.45907200	     -0.10067489	     -0.51531072	    -25.26127458	     -0.74656472	      0.00000000	      0.00000000	     16.45378087	     15.78025421	      1.45095165	     15.04792672	     -1.37386874	     16.32929068	    113.73090587	     86.50149574	    -12.54851862	     31.82331063	     20.25158219	    -11.22585519	    166.51154901	      5.76157982	      6.39254882	     -9.83223571	     -2.70577996
      0.76666667	     -9.94852508	    -14.93545784	     79.20630849	      0.23348925	      0.92464072	      0.55444923	     22.57476081	     -7.10636570	     -3.69449893	     14.96118443	      0.26112193	     31.07373411	     12.92146077	      0.00000000	     18.77737032	      5.70405757	      0.85913414	      7.35745750	      0.12841186	     17.98337096	    -14.49913552	      0.00000000	     -0.08475619	     -2.37854627	     -0.23658056	     -0.15740071	     -3.16346654	     -0.25136685	     -0.13924594	     -5.78319740	     -0.25136685	     -0.09686785	     -5.78319740	     -0.20700799	     -0.07870459	     -4.85033156	     -0.19222171	     -0.04842968	     -3.68436817	     -0.17743542	     -0.60540496	    -26.90659113	     -1.31579011	      0.00000000	      0.00000000	     16.56166601	     16.82918490	      1.55610267	     16.69852167	     -0.14384301	     16.00388752	    114.17476164	     86.70622226	    -12.36708667	     32.28204905	     18.96214033	    -12.38516551	    164.70498275	      5.81553780	      5.03934111	    -11.69496927	     -1.39947468
      0.78333333	    -10.47136777	    -15.27224725	     79.08927745	      0.23497322	      0.92467659	      0.55496771	     22.88625983	     -7.41884759	     -3.51418656	     14.63728756	      0.25546886	     30.92667170	     12.90168860	      0.00000000	     19.36203609	      5.99952714	      0.12759114	      7.58671640	      0.13241318	     17.31884671	    -14.25646258	      0.00000000	     -0.09420598	     -2.50145543	     -0.30515966	     -0.17494992	     -3.32693573	     -0.32423214	     -0.15477100	     -6.08203874	     -0.32423214	     -0.10766801	     -6.08203874	     -0.26701470	     -0.08747967	     -5.10096792	     -0.24794222	     -0.05382930	     -3.87475447	     -0.22886974	     -0.67290388	    -28.29696416	     -1.69720646	      0.00000000	      0.00000000	     17.26929906	     17.45755179	      0.81706573	     18.10164493	      1.17999544	     15.48141113	    114.14333219	     86.63118448	    -12.19104650	     31.97730487	     17.67466928	    -13.40430005	    162.99225102	      5.33383781	      4.13524191	    -12.83713801	     -1.24578093
      0.80000000	    -11.06620784	    -15.57594556	     78.94329044	      0.23662348	      0.92477629	      0.55542714	     23.26204619	     -7.80072116	     -3.24389006	     14.48734828	      0.25285193	     30.77536123	     12.87332849	      0.00000000	     19.92146906	      6.34419613	     -0.42380601	      7.76062328	      0.13544843	     16.77988762	    -13.89371668	      0.00000000	     -0.10517527	     -2.63140038	     -0.35229939	     -0.19532100	     -3.49976250	     -0.37431810	     -0.17279246	     -6.39798688	     -0.37431810	     -0.12020482	     -6.39798688	     -0.30826197	     -0.09766576	     -5.36595165	     -0.28624325	     -0.06009715	     -4.07603919	     -0.26422454	     -0.75125646	    -29.76692736	     -1.95938352	      0.00000000	      0.00000000	     18.00977638	     18.01924027	     -0.24543344	     19.13183653	      2.64953581	     14.87500781	    113.85322664	     86.37450757	    -11.95263233	     31.20329290	     16.54161334	    -14.29727070	    161.34756162	      4.85903609	      3.63595029	    -14.00946796	     -1.31687423
      0.81666667	    -11.83420632	    -15.81418015	     78.43348254	      0.23825109	      0.92480119	      0.55558848	     23.74438521	     -8.23889624	     -2.31648674	     14.47892966	      0.25270499	     30.75133129	     12.41957373	      0.00000000	     20.37549493	      6.72705194	     -2.23645092	      7.76377578	      0.13550345	     16.69498972	    -12.07412127	      0.00000000	     -0.09886421	     -2.77597303	     -0.28475371	     -0.18360073	     -3.69204413	     -0.30255082	     -0.16242402	     -6.74950083	     -0.30255082	     -0.11299191	     -6.74950083	     -0.24915950	     -0.09180531	     -5.66076421	     -0.23136239	     -0.05649101	     -4.29998223	     -0.21356528	     -0.70617719	    -31.40236213	     -1.58371470	      0.00000000	      0.00000000	     18.65886488	     18.44509064	     -1.84791217	     19.85692655	      3.80946448	     13.91040389	    113.24627965	     86.02544997	    -10.19839735	     29.53739176	     15.72131398	    -15.19504066	    154.93510831	      5.23130396	      6.27867835	    -15.66972143	     -2.47924849
      0.83333333	    -12.43525061	    -16.09768498	     78.28522207	      0.23946287	      0.92482371	      0.55560112	     24.12175777	     -8.66919836	     -2.00985856	     14.38273178	      0.25102602	     30.71319782	     12.38529403	      0.00000000	     20.81232531	      7.13212505	     -2.54863107	      7.71122832	      0.13458632	     16.25809493	    -11.86546270	      0.00000000	     -0.09380123	     -2.89660967	     -0.24854192	     -0.17419827	     -3.85249086	     -0.26407579	     -0.15410604	     -7.04281675	     -0.26407579	     -0.10720543	     -7.04281675	     -0.21747418	     -0.08710382	     -5.90676644	     -0.20194031	     -0.05359802	     -4.48684838	     -0.18640644	     -0.67001282	    -32.76702792	     -1.38231561	      0.00000000	      0.00000000	     19.31299923	     18.88685402	     -3.50121748	     20.43678295	      4.81354958	     13.18559739	    112.50306368	     85.40128556	     -9.57486534	     27.43947146	     15.23613075	    -15.64790512	    156.07434581	      4.93606742	      7.53274386	    -16.45010297	     -2.22754539
